<svg xmlns="http://www.w3.org/2000/svg" xml:space="preserve" id="Layer_1" x="0" y="0" style="enable-background:new 0 0 32 32" version="1.1" viewBox="0 0 32 32"><style>.st1{fill:#fff}</style><circle cx="16" cy="16" r="16" style="fill:#ec2f0d"/><path d="M21.3 8.1v1.7c-.4-.5-1-1-1.7-1.4-.7-.3-1.4-.5-2.3-.5V10h.3c.6 0 1.2.2 1.8.5.5.3 1 .8 1.3 1.4.3.6.5 1.3.5 2.1s-.2 1.5-.5 2.1c-.3.6-.8 1.1-1.3 1.4-.5.3-1.1.5-1.8.5h-.3v2.1c.8 0 1.6-.2 2.3-.6.7-.4 1.3-.9 1.7-1.4v2c0 1.2-.3 2-.9 2.6-.6.6-1.4.9-2.4.9h-.6v2.1h.6c1.2 0 2.3-.2 3.1-.7.9-.5 1.5-1.2 2-2 .5-.9.7-1.8.7-2.9v-12h-2.5zM14 21.9V24c-1.3-.1-2.5-.5-3.4-1.1-1.1-.8-1.7-1.8-1.8-3.1h2.4c.2.6.6 1.1 1.2 1.5.5.4 1 .6 1.6.6zM11.2 10.1c-.3.6-.5 1.3-.5 2.1s.2 1.5.5 2.2c.3.6.8 1.1 1.3 1.4.4.3.9.4 1.4.5v2.1h-.2c-1 0-2-.3-2.8-.8-.9-.5-1.5-1.3-2-2.2-.5-.9-.7-2-.7-3.2 0-1.2.2-2.3.7-3.2.5-.9 1.2-1.6 2-2.1.9-.5 1.8-.8 2.8-.8h.2v2.1c-.5.1-1 .2-1.4.5-.5.4-.9.8-1.3 1.4z" class="st1"/><path d="m14 6.2 3.4 1.7V10L14 8.3zM14 16.3l3.4 1.7v2.2L14 18.4zM14 21.9l3.4 1.8v2.1L14 24.1z" class="st1"/></svg>