<svg xmlns="http://www.w3.org/2000/svg" xml:space="preserve" id="Layer_1" x="0" y="0" style="enable-background:new 0 0 100 100" version="1.1" viewBox="0 0 100 100"><style>.st1{fill:#ec2f0d}.st2{fill:#162330}</style><circle cx="4104.2" cy="980.3" r="92.6" style="fill:#162330;stroke:#ec2f0d;stroke-width:10.9011;stroke-miterlimit:10"/><path d="M4135 934.5v10c-2.3-3.2-5.6-5.8-9.7-7.9-3.9-2-8.2-3-13.2-3.2l-19.7-9.9h-1c-6 0-11.5 1.5-16.4 4.4-5 2.9-8.9 7.1-11.7 12.4-2.9 5.3-4.3 11.4-4.3 18.3s1.4 13.1 4.3 18.5c2.9 5.5 6.8 9.7 11.7 12.7 4.9 3 10.4 4.6 16.4 4.6h1l19.7 9.9c4.9-.1 9.2-1.2 13.1-3.3 4.1-2.2 7.4-4.9 9.8-8.2v11.5c0 6.7-1.8 11.7-5.3 15.2s-8.2 5.2-13.9 5.2c-1.2 0-2.4-.1-3.6-.2l-19.7-9.9c-3.4-.5-6.4-1.5-9-3.1-3.5-2.2-5.8-5.1-6.9-8.7h-14.1c.8 7.5 4.3 13.4 10.5 17.8 5.3 3.8 11.9 5.9 19.6 6.4l19.7 9.9c1.2.1 2.4.1 3.6.1 7 0 13-1.4 18-4.3 5-2.8 8.9-6.7 11.6-11.7 2.7-4.9 4-10.6 4-16.9v-69.9H4135zm-3 46.7c-2 3.5-4.5 6.2-7.7 8.1-3.2 1.8-6.5 2.7-10.2 2.7-.7 0-1.4 0-2-.1l-19.7-9.9c-2.9-.3-5.6-1.2-8.2-2.7-3.2-1.9-5.8-4.6-7.7-8.2-2-3.6-2.9-7.7-2.9-12.5 0-4.7 1-8.8 2.9-12.3 1.9-3.4 4.5-6.1 7.6-7.8 2.6-1.5 5.3-2.3 8.2-2.6l19.7 9.9c.7 0 1.3-.1 2-.1 3.7 0 7.1.9 10.2 2.7 3.2 1.8 5.7 4.5 7.7 8s2.9 7.6 2.9 12.4c.2 4.8-.8 8.9-2.8 12.4z" class="st1"/><circle cx="50.1" cy="50" r="46.9" class="st2"/><path d="M50.1 99.7C22.7 99.7.4 77.4.4 50 .4 22.6 22.7.4 50 .4S99.7 22.6 99.7 50c0 27.4-22.3 49.7-49.6 49.7zm0-93.8C25.7 5.9 5.9 25.7 5.9 50S25.7 94.1 50 94.1 94.2 74.3 94.2 50 74.4 5.9 50.1 5.9z" class="st2"/><path d="M65.7 26.8v5.1c-1.2-1.6-2.8-2.9-4.9-4-2-1-4.2-1.5-6.7-1.6l-10-5h-.5c-3 0-5.8.7-8.3 2.2-2.5 1.5-4.5 3.6-5.9 6.3-1.4 2.7-2.2 5.8-2.2 9.3 0 3.5.7 6.6 2.2 9.4 1.4 2.8 3.4 4.9 5.9 6.4 2.5 1.5 5.3 2.3 8.3 2.3h.5l10 5c2.5-.1 4.7-.6 6.6-1.7 2.1-1.1 3.7-2.5 5-4.1v5.8c0 3.4-.9 5.9-2.7 7.7-1.8 1.8-4.1 2.6-7.1 2.6-.6 0-1.2 0-1.8-.1l-10-5c-1.7-.2-3.2-.7-4.6-1.6-1.8-1.1-3-2.6-3.5-4.4h-7.1c.4 3.8 2.2 6.8 5.3 9 2.7 1.9 6 3 9.9 3.3l10 5c.6 0 1.2.1 1.8.1 3.5 0 6.6-.7 9.1-2.2 2.6-1.4 4.5-3.4 5.9-5.9 1.4-2.5 2-5.4 2-8.6V26.8h-7.2zm-1.5 23.7c-1 1.8-2.3 3.2-3.9 4.1-1.6.9-3.3 1.4-5.2 1.4-.3 0-.7 0-1-.1l-10-5c-1.4-.1-2.8-.6-4.1-1.4-1.6-1-2.9-2.3-3.9-4.2-1-1.8-1.5-3.9-1.5-6.3s.5-4.5 1.5-6.2c1-1.7 2.3-3.1 3.9-4 1.3-.7 2.7-1.2 4.2-1.3l10 5h1c1.9 0 3.6.5 5.2 1.4 1.6.9 2.9 2.3 3.9 4 1 1.8 1.5 3.9 1.5 6.3-.1 2.4-.6 4.5-1.6 6.3z" class="st1"/></svg>