<svg xmlns="http://www.w3.org/2000/svg" xml:space="preserve" style="enable-background:new 0 0 100 100" viewBox="0 0 100 100"><circle cx="50" cy="49.6" r="48.6" style="fill:#162330"/><path d="M66.2 25.5v5.2c-1.2-1.7-2.9-3-5.1-4.1-2-1-4.3-1.6-6.9-1.7l-10.3-5.2h-.5c-3.1 0-6 .8-8.6 2.3-2.6 1.5-4.7 3.7-6.2 6.5s-2.3 6-2.3 9.6c0 3.6.8 6.9 2.3 9.7 1.5 2.9 3.6 5.1 6.2 6.7 2.6 1.6 5.5 2.4 8.6 2.4h.5l10.3 5.2c2.5-.1 4.8-.6 6.9-1.7 2.2-1.1 3.9-2.6 5.1-4.3v6c0 3.5-.9 6.2-2.8 8-1.9 1.8-4.3 2.7-7.3 2.7-.7 0-1.3 0-1.9-.1l-10.3-5.2c-1.8-.2-3.4-.8-4.7-1.6-1.9-1.1-3.1-2.7-3.6-4.5h-7.4c.4 3.9 2.3 7 5.5 9.3 2.8 2 6.2 3.1 10.3 3.4l10.3 5.2c.6 0 1.2.1 1.9.1 3.7 0 6.8-.7 9.5-2.2 2.6-1.5 4.7-3.5 6.1-6.1 1.4-2.6 2.1-5.6 2.1-8.9V25.5h-7.7zM64.6 50c-1 1.9-2.4 3.3-4 4.2-1.7 1-3.4 1.4-5.4 1.4-.4 0-.7 0-1-.1l-10.3-5.2c-1.5-.1-2.9-.6-4.3-1.4-1.7-1-3-2.4-4-4.3s-1.5-4-1.5-6.5.5-4.6 1.5-6.5c1-1.8 2.4-3.2 4-4.1 1.4-.8 2.8-1.2 4.3-1.4l10.3 5.2h1c1.9 0 3.7.5 5.4 1.4 1.7 1 3 2.4 4 4.2 1 1.8 1.5 4 1.5 6.5.1 2.6-.4 4.8-1.5 6.6z" style="fill:#fff"/></svg>